<svg width="96" height="17" viewBox="0 0 96 17" fill="none" xmlns="http://www.w3.org/2000/svg">
<path d="M8.5 -0.000610352L10.9981 5.06107L16.584 5.87275L12.542 9.81271L13.4962 15.376L8.5 12.7494L3.50383 15.376L4.45801 9.81271L0.416019 5.87275L6.00191 5.06107L8.5 -0.000610352Z" fill="#FF9401"/>
<path d="M28.05 -0.000610352L30.548 5.06107L36.1339 5.87275L32.0919 9.81271L33.0461 15.376L28.05 12.7494L23.0538 15.376L24.008 9.81271L19.966 5.87275L25.5519 5.06107L28.05 -0.000610352Z" fill="#FF9401"/>
<path d="M47.6 -0.000610352L50.0981 5.06107L55.684 5.87275L51.642 9.81271L52.5962 15.376L47.6 12.7494L42.6038 15.376L43.558 9.81271L39.516 5.87275L45.1019 5.06107L47.6 -0.000610352Z" fill="#FF9401"/>
<path d="M67.15 -0.000610352L69.6481 5.06107L75.234 5.87275L71.192 9.81271L72.1462 15.376L67.15 12.7494L62.1538 15.376L63.108 9.81271L59.066 5.87275L64.6519 5.06107L67.15 -0.000610352Z" fill="#FF9401"/>
<path d="M86.7 -0.000610352L89.1981 5.06107L94.784 5.87275L90.742 9.81271L91.6962 15.376L86.7 12.7494L81.7039 15.376L82.6581 9.81271L78.6161 5.87275L84.202 5.06107L86.7 -0.000610352Z" fill="#FF9401"/>
</svg>
